%TF.GenerationSoftware,KiCad,Pcbnew,(6.0.9)*%
%TF.CreationDate,2023-01-27T17:59:37+01:00*%
%TF.ProjectId,adaptateur in 8 in 14,61646170-7461-4746-9575-7220696e2038,rev?*%
%TF.SameCoordinates,Original*%
%TF.FileFunction,Legend,Top*%
%TF.FilePolarity,Positive*%
%FSLAX46Y46*%
G04 Gerber Fmt 4.6, Leading zero omitted, Abs format (unit mm)*
G04 Created by KiCad (PCBNEW (6.0.9)) date 2023-01-27 17:59:37*
%MOMM*%
%LPD*%
G01*
G04 APERTURE LIST*
%ADD10C,0.101600*%
%ADD11C,0.150000*%
%ADD12C,0.254000*%
%ADD13C,0.127000*%
G04 APERTURE END LIST*
D10*
%TO.C,IN14_corr1*%
X132756666Y-93333448D02*
X132756666Y-92063448D01*
X133361428Y-93333448D02*
X133361428Y-92063448D01*
X134087142Y-93333448D01*
X134087142Y-92063448D01*
X135357142Y-93333448D02*
X134631428Y-93333448D01*
X134994285Y-93333448D02*
X134994285Y-92063448D01*
X134873333Y-92244877D01*
X134752380Y-92365829D01*
X134631428Y-92426305D01*
X136445714Y-92486782D02*
X136445714Y-93333448D01*
X136143333Y-92002972D02*
X135840952Y-92910115D01*
X136627142Y-92910115D01*
X136808571Y-93454401D02*
X137776190Y-93454401D01*
X138622857Y-93272972D02*
X138501904Y-93333448D01*
X138260000Y-93333448D01*
X138139047Y-93272972D01*
X138078571Y-93212496D01*
X138018095Y-93091544D01*
X138018095Y-92728686D01*
X138078571Y-92607734D01*
X138139047Y-92547258D01*
X138260000Y-92486782D01*
X138501904Y-92486782D01*
X138622857Y-92547258D01*
X139348571Y-93333448D02*
X139227619Y-93272972D01*
X139167142Y-93212496D01*
X139106666Y-93091544D01*
X139106666Y-92728686D01*
X139167142Y-92607734D01*
X139227619Y-92547258D01*
X139348571Y-92486782D01*
X139530000Y-92486782D01*
X139650952Y-92547258D01*
X139711428Y-92607734D01*
X139771904Y-92728686D01*
X139771904Y-93091544D01*
X139711428Y-93212496D01*
X139650952Y-93272972D01*
X139530000Y-93333448D01*
X139348571Y-93333448D01*
X140316190Y-93333448D02*
X140316190Y-92486782D01*
X140316190Y-92728686D02*
X140376666Y-92607734D01*
X140437142Y-92547258D01*
X140558095Y-92486782D01*
X140679047Y-92486782D01*
X141102380Y-93333448D02*
X141102380Y-92486782D01*
X141102380Y-92728686D02*
X141162857Y-92607734D01*
X141223333Y-92547258D01*
X141344285Y-92486782D01*
X141465238Y-92486782D01*
X142553809Y-93333448D02*
X141828095Y-93333448D01*
X142190952Y-93333448D02*
X142190952Y-92063448D01*
X142070000Y-92244877D01*
X141949047Y-92365829D01*
X141828095Y-92426305D01*
D11*
X134814047Y-92508448D02*
X134814047Y-91238448D01*
X135418809Y-92508448D02*
X135418809Y-91238448D01*
X136144523Y-92508448D01*
X136144523Y-91238448D01*
X136749285Y-92024639D02*
X137716904Y-92024639D01*
X138986904Y-92508448D02*
X138261190Y-92508448D01*
X138624047Y-92508448D02*
X138624047Y-91238448D01*
X138503095Y-91419877D01*
X138382142Y-91540829D01*
X138261190Y-91601305D01*
X140075476Y-91661782D02*
X140075476Y-92508448D01*
X139773095Y-91177972D02*
X139470714Y-92085115D01*
X140256904Y-92085115D01*
%TO.C,IN8_2*%
X135655597Y-91611305D02*
X135655597Y-90611305D01*
X136131787Y-91611305D02*
X136131787Y-90611305D01*
X136703216Y-91611305D01*
X136703216Y-90611305D01*
X137322263Y-91039877D02*
X137227025Y-90992258D01*
X137179406Y-90944639D01*
X137131787Y-90849401D01*
X137131787Y-90801782D01*
X137179406Y-90706544D01*
X137227025Y-90658925D01*
X137322263Y-90611305D01*
X137512740Y-90611305D01*
X137607978Y-90658925D01*
X137655597Y-90706544D01*
X137703216Y-90801782D01*
X137703216Y-90849401D01*
X137655597Y-90944639D01*
X137607978Y-90992258D01*
X137512740Y-91039877D01*
X137322263Y-91039877D01*
X137227025Y-91087496D01*
X137179406Y-91135115D01*
X137131787Y-91230353D01*
X137131787Y-91420829D01*
X137179406Y-91516067D01*
X137227025Y-91563686D01*
X137322263Y-91611305D01*
X137512740Y-91611305D01*
X137607978Y-91563686D01*
X137655597Y-91516067D01*
X137703216Y-91420829D01*
X137703216Y-91230353D01*
X137655597Y-91135115D01*
X137607978Y-91087496D01*
X137512740Y-91039877D01*
X137893692Y-91706544D02*
X138655597Y-91706544D01*
X138846073Y-90706544D02*
X138893692Y-90658925D01*
X138988930Y-90611305D01*
X139227025Y-90611305D01*
X139322263Y-90658925D01*
X139369882Y-90706544D01*
X139417501Y-90801782D01*
X139417501Y-90897020D01*
X139369882Y-91039877D01*
X138798454Y-91611305D01*
X139417501Y-91611305D01*
D12*
%TO.C,IN14_corr1*%
X145095000Y-91933925D02*
G75*
G03*
X129855000Y-92091405I-7620000J-78740D01*
G01*
X146347220Y-91933925D02*
G75*
G03*
X146347220Y-91933925I-8872220J0D01*
G01*
D13*
%TO.C,IN8_2*%
X143657021Y-91597215D02*
G75*
G03*
X131155120Y-91572565I-6250961J6870D01*
G01*
D12*
X143705260Y-91658925D02*
G75*
G03*
X131162740Y-91658925I-6271260J0D01*
G01*
X145120040Y-91658925D02*
G75*
G03*
X145120040Y-91658925I-7607300J0D01*
G01*
D13*
X145132740Y-91658925D02*
G75*
G03*
X145132740Y-91658925I-7620000J0D01*
G01*
%TD*%
M02*
