M48
; DRILL file {KiCad (6.0.9)} date Fri Jan 27 17:59:54 2023
; FORMAT={-:-/ absolute / inch / decimal}
; #@! TF.CreationDate,2023-01-27T17:59:54+01:00
; #@! TF.GenerationSoftware,Kicad,Pcbnew,(6.0.9)
; #@! TF.FileFunction,Plated,1,2,PTH
FMAT,2
INCH
; #@! TA.AperFunction,Plated,PTH,ComponentDrill
T1C0.0330
%
G90
G05
T1
X5.1705Y-3.6487
X5.1846Y-3.533
X5.2119Y-3.7578
X5.2269Y-3.6086
X5.2508Y-3.437
X5.252Y-3.5151
X5.252Y-3.7021
X5.2992Y-3.8351
X5.3204Y-3.4467
X5.3204Y-3.7705
X5.3541Y-3.3828
X5.4124Y-3.863
X5.4139Y-3.4216
X5.4707Y-3.3828
X5.5074Y-3.4467
X5.5074Y-3.7705
X5.5256Y-3.8351
X5.574Y-3.437
X5.5758Y-3.5151
X5.5758Y-3.7021
X5.6009Y-3.6086
X5.6129Y-3.7578
X5.6402Y-3.533
X5.6543Y-3.6487
T0
M30
